<?xml version="1.0" encoding="UTF-8" standalone="no"?>
<!-- Created with Inkscape (http://www.inkscape.org/) -->

<svg
   xmlns:dc="http://purl.org/dc/elements/1.1/"
   xmlns:cc="http://creativecommons.org/ns#"
   xmlns:rdf="http://www.w3.org/1999/02/22-rdf-syntax-ns#"
   xmlns:svg="http://www.w3.org/2000/svg"
   xmlns="http://www.w3.org/2000/svg"
   xmlns:sodipodi="http://sodipodi.sourceforge.net/DTD/sodipodi-0.dtd"
   xmlns:inkscape="http://www.inkscape.org/namespaces/inkscape"
   width="91.610443mm"
   height="56.758026mm"
   viewBox="0 0 91.610443 56.758026"
   version="1.1"
   id="svg3686"
   inkscape:version="0.92.1 r15371"
   sodipodi:docname="deepdivelogo.svg">
  <defs
     id="defs3680">
    <clipPath
       clipPathUnits="userSpaceOnUse"
       id="clipPath4521">
      <rect
         style="opacity:1;fill:#2fffff;fill-opacity:1;stroke:#3f88c5;stroke-width:0.26458332;stroke-opacity:0"
         id="rect4523"
         width="93.305733"
         height="60.903164"
         x="55.366512"
         y="27.859949" />
    </clipPath>
    <clipPath
       clipPathUnits="userSpaceOnUse"
       id="clipPath4529">
      <rect
         style="opacity:1;fill:#2fffff;fill-opacity:1;stroke:#3f88c5;stroke-width:0.26458332;stroke-opacity:0"
         id="rect4531"
         width="182.26852"
         height="116.12268"
         x="5.3896608"
         y="7.9182096"
         clip-path="url(#clipPath4521)"
         transform="translate(-1.9794749,1.6854936)" />
    </clipPath>
  </defs>
  <sodipodi:namedview
     id="base"
     pagecolor="#ffffff"
     bordercolor="#666666"
     borderopacity="1.0"
     inkscape:pageopacity="0.0"
     inkscape:pageshadow="2"
     inkscape:zoom="0.54"
     inkscape:cx="-176.57409"
     inkscape:cy="139.0926"
     inkscape:document-units="mm"
     inkscape:current-layer="layer1"
     showgrid="false"
     fit-margin-top="0"
     fit-margin-left="0"
     fit-margin-right="0"
     fit-margin-bottom="0"
     inkscape:window-width="1366"
     inkscape:window-height="715"
     inkscape:window-x="-8"
     inkscape:window-y="-8"
     inkscape:window-maximized="1" />
  <metadata
     id="metadata3683">
    <rdf:RDF>
      <cc:Work
         rdf:about="">
        <dc:format>image/svg+xml</dc:format>
        <dc:type
           rdf:resource="http://purl.org/dc/dcmitype/StillImage" />
        <dc:title></dc:title>
      </cc:Work>
    </rdf:RDF>
  </metadata>
  <g
     inkscape:label="Layer 1"
     inkscape:groupmode="layer"
     id="layer1"
     transform="translate(-54.313081,-29.413152)">
    <rect
       style="opacity:1;fill:#2fffff;fill-opacity:1;stroke:#3f88c5;stroke-width:0.25217903;stroke-opacity:0"
       id="rect4533"
       width="91.358261"
       height="56.505848"
       x="54.439171"
       y="29.539242" />
    <path
       style="fill:#3f88c5;fill-opacity:1;stroke:#3f88c5;stroke-width:0.26458332px;stroke-linecap:butt;stroke-linejoin:miter;stroke-opacity:0"
       d="m 54.108186,67.547445 92.976554,-39.687496 0.30018,59.243474 -92.945749,0 z"
       id="path3702"
       inkscape:connector-curvature="0"
       clip-path="url(#clipPath4529)"
       sodipodi:nodetypes="ccccc" />
    <text
       xml:space="preserve"
       style="font-style:normal;font-variant:normal;font-weight:normal;font-stretch:normal;font-size:10.58333302px;line-height:1.25;font-family:Tahoma;-inkscape-font-specification:'Tahoma, Normal';font-variant-ligatures:normal;font-variant-caps:normal;font-variant-numeric:normal;text-align:start;letter-spacing:0px;word-spacing:0px;writing-mode:lr-tb;text-anchor:start;fill:#032b43;fill-opacity:1;stroke:none;stroke-width:0.26458332"
       x="58.874695"
       y="53.975307"
       id="text3690"><tspan
         sodipodi:role="line"
         id="tspan3688"
         x="58.874695"
         y="53.975307"
         style="font-size:22.57777786px;fill:#032b43;fill-opacity:1;stroke-width:0.26458332">Deep</tspan></text>
    <text
       xml:space="preserve"
       style="font-style:normal;font-variant:normal;font-weight:normal;font-stretch:normal;font-size:22.57777786px;line-height:1.25;font-family:Tahoma;-inkscape-font-specification:'Tahoma, Normal';font-variant-ligatures:normal;font-variant-caps:normal;font-variant-numeric:normal;text-align:start;letter-spacing:0px;word-spacing:0px;writing-mode:lr-tb;text-anchor:start;fill:#2fffff;fill-opacity:1;stroke:none;stroke-width:0.26458332"
       x="98.033012"
       y="77.00386"
       id="text3694"><tspan
         sodipodi:role="line"
         id="tspan3692"
         x="98.033012"
         y="77.00386"
         style="font-size:22.57777786px;fill:#2fffff;fill-opacity:1;stroke-width:0.26458332">Dive</tspan></text>
    <path
       style="opacity:1;fill:#f4f7be;fill-opacity:0;stroke-width:1.85185182"
       d="m 336.48148,365.16998 c -92.68518,-0.84972 -198.808,-2.16865 -235.82848,-2.93096 l -67.309966,-1.386 33.72832,-43.51852 33.728316,-43.51852 91.91498,-38.60799 c 59.08911,-24.81981 94.06439,-38.56311 97.9335,-38.48232 3.87231,0.0808 6.01852,-0.76345 6.01852,-2.36766 0,-1.37134 3.95833,-4.18035 8.79629,-6.24225 51.60145,-21.99206 213.92435,-89.382078 214.24198,-88.944744 0.22804,0.31399 19.00025,58.904224 41.71599,130.200524 22.71576,71.29629 42.00155,131.50463 42.85735,133.79629 l 1.55598,4.16667 -50.41713,-0.30978 C 527.6877,366.85433 429.16667,366.0197 336.48148,365.16998 Z M 438.39281,262.79936 c 4.10675,-1.7159 6.422,-3.94133 6.422,-6.17284 0,-5.20608 -1.5825,-5.88033 -7.07535,-3.01458 -10.82765,5.64904 -24.40613,0.92021 -24.40613,-8.49966 0,-3.4176 1.23458,-3.70371 15.98158,-3.70371 h 15.98157 l -0.98457,-8.73519 c -1.3321,-11.81827 -7.4651,-17.19073 -19.62426,-17.19073 -7.29534,0 -9.69034,0.91936 -13.93402,5.34881 -12.16335,12.69581 -9.40652,35.66765 5.0343,41.94909 7.65798,3.33106 14.66361,3.33689 22.60488,0.0188 z m -114.66016,-3.91262 c 10.16074,-7.58814 12.74883,-13.01601 12.74883,-26.73743 0,-9.93001 -0.83074,-13.80405 -3.81813,-17.80533 -7.75091,-10.3815 -12.88346,-12.70169 -29.64961,-13.40321 l -15.60633,-0.653 v 31.86154 31.86155 l 15.60633,-0.653 c 12.17996,-0.50962 16.72878,-1.49126 20.71891,-4.47112 z m 30.34142,-19.33002 v -24.07407 h -4.62963 -4.62963 v 24.07407 24.07408 h 4.62963 4.62963 z m 38.88889,1.53182 c 4.58334,-12.39284 8.63248,-23.28808 8.99811,-24.21164 0.36563,-0.92356 -1.7177,-1.40676 -4.62963,-1.07377 -4.86857,0.55675 -5.76294,1.94598 -11.11955,17.27211 -6.51404,18.63766 -5.21159,19.11872 -13.78795,-5.09259 -4.06003,-11.46161 -4.86511,-12.5 -9.69133,-12.5 -2.89491,0 -4.9857,0.69153 -4.64618,1.53673 0.3395,0.8452 4.36727,11.67632 8.95061,24.06916 7.61044,20.57781 8.73494,22.53243 12.96296,22.53243 4.22802,0 5.35252,-1.95462 12.96296,-22.53243 z m -38.88889,-35.79108 c 0,-3.90946 -0.8642,-4.62963 -5.55555,-4.62963 -4.69135,0 -5.55556,0.72017 -5.55556,4.62963 0,3.90947 0.86421,4.62963 5.55556,4.62963 4.69135,0 5.55555,-0.72016 5.55555,-4.62963 z"
       id="path3704"
       inkscape:connector-curvature="0"
       transform="scale(0.26458333)" />
    <path
       style="opacity:1;fill:#f4f7be;fill-opacity:0;stroke-width:1.85185182"
       d="m 336.48148,365.16998 c -92.68518,-0.84972 -198.808,-2.16865 -235.82848,-2.93096 l -67.309966,-1.386 33.72832,-43.51852 33.728316,-43.51852 91.91498,-38.60799 c 59.08911,-24.81981 94.06439,-38.56311 97.9335,-38.48232 3.87231,0.0808 6.01852,-0.76345 6.01852,-2.36766 0,-1.37134 3.95833,-4.18035 8.79629,-6.24225 51.60145,-21.99206 213.92435,-89.382078 214.24198,-88.944744 0.22804,0.31399 19.00025,58.904224 41.71599,130.200524 22.71576,71.29629 42.00155,131.50463 42.85735,133.79629 l 1.55598,4.16667 -50.41713,-0.30978 C 527.6877,366.85433 429.16667,366.0197 336.48148,365.16998 Z M 438.39281,262.79936 c 4.10675,-1.7159 6.422,-3.94133 6.422,-6.17284 0,-5.20608 -1.5825,-5.88033 -7.07535,-3.01458 -10.82765,5.64904 -24.40613,0.92021 -24.40613,-8.49966 0,-3.4176 1.23458,-3.70371 15.98158,-3.70371 h 15.98157 l -0.98457,-8.73519 c -1.3321,-11.81827 -7.4651,-17.19073 -19.62426,-17.19073 -7.29534,0 -9.69034,0.91936 -13.93402,5.34881 -12.16335,12.69581 -9.40652,35.66765 5.0343,41.94909 7.65798,3.33106 14.66361,3.33689 22.60488,0.0188 z m -114.66016,-3.91262 c 10.16074,-7.58814 12.74883,-13.01601 12.74883,-26.73743 0,-9.93001 -0.83074,-13.80405 -3.81813,-17.80533 -7.75091,-10.3815 -12.88346,-12.70169 -29.64961,-13.40321 l -15.60633,-0.653 v 31.86154 31.86155 l 15.60633,-0.653 c 12.17996,-0.50962 16.72878,-1.49126 20.71891,-4.47112 z m 30.34142,-19.33002 v -24.07407 h -4.62963 -4.62963 v 24.07407 24.07408 h 4.62963 4.62963 z m 38.88889,1.53182 c 4.58334,-12.39284 8.63248,-23.28808 8.99811,-24.21164 0.36563,-0.92356 -1.7177,-1.40676 -4.62963,-1.07377 -4.86857,0.55675 -5.76294,1.94598 -11.11955,17.27211 -6.51404,18.63766 -5.21159,19.11872 -13.78795,-5.09259 -4.06003,-11.46161 -4.86511,-12.5 -9.69133,-12.5 -2.89491,0 -4.9857,0.69153 -4.64618,1.53673 0.3395,0.8452 4.36727,11.67632 8.95061,24.06916 7.61044,20.57781 8.73494,22.53243 12.96296,22.53243 4.22802,0 5.35252,-1.95462 12.96296,-22.53243 z m -38.88889,-35.79108 c 0,-3.90946 -0.8642,-4.62963 -5.55555,-4.62963 -4.69135,0 -5.55556,0.72017 -5.55556,4.62963 0,3.90947 0.86421,4.62963 5.55556,4.62963 4.69135,0 5.55555,-0.72016 5.55555,-4.62963 z"
       id="path3706"
       inkscape:connector-curvature="0"
       transform="scale(0.26458333)" />
    <path
       style="opacity:1;fill:#f4f7be;fill-opacity:0;stroke-width:1.85185182"
       d="m 336.48148,365.16998 c -92.68518,-0.84972 -198.808,-2.16865 -235.82848,-2.93096 l -67.309966,-1.386 33.72832,-43.51852 33.728316,-43.51852 91.91498,-38.60799 c 59.08911,-24.81981 94.06439,-38.56311 97.9335,-38.48232 3.87231,0.0808 6.01852,-0.76345 6.01852,-2.36766 0,-1.37134 3.95833,-4.18035 8.79629,-6.24225 51.60145,-21.99206 213.92435,-89.382078 214.24198,-88.944744 0.22804,0.31399 19.00025,58.904224 41.71599,130.200524 22.71576,71.29629 42.00155,131.50463 42.85735,133.79629 l 1.55598,4.16667 -50.41713,-0.30978 C 527.6877,366.85433 429.16667,366.0197 336.48148,365.16998 Z M 438.39281,262.79936 c 4.10675,-1.7159 6.422,-3.94133 6.422,-6.17284 0,-5.20608 -1.5825,-5.88033 -7.07535,-3.01458 -10.82765,5.64904 -24.40613,0.92021 -24.40613,-8.49966 0,-3.4176 1.23458,-3.70371 15.98158,-3.70371 h 15.98157 l -0.98457,-8.73519 c -1.3321,-11.81827 -7.4651,-17.19073 -19.62426,-17.19073 -7.29534,0 -9.69034,0.91936 -13.93402,5.34881 -12.16335,12.69581 -9.40652,35.66765 5.0343,41.94909 7.65798,3.33106 14.66361,3.33689 22.60488,0.0188 z m -114.66016,-3.91262 c 10.16074,-7.58814 12.74883,-13.01601 12.74883,-26.73743 0,-9.93001 -0.83074,-13.80405 -3.81813,-17.80533 -7.75091,-10.3815 -12.88346,-12.70169 -29.64961,-13.40321 l -15.60633,-0.653 v 31.86154 31.86155 l 15.60633,-0.653 c 12.17996,-0.50962 16.72878,-1.49126 20.71891,-4.47112 z m 30.34142,-19.33002 v -24.07407 h -4.62963 -4.62963 v 24.07407 24.07408 h 4.62963 4.62963 z m 38.88889,1.53182 c 4.58334,-12.39284 8.63248,-23.28808 8.99811,-24.21164 0.36563,-0.92356 -1.7177,-1.40676 -4.62963,-1.07377 -4.86857,0.55675 -5.76294,1.94598 -11.11955,17.27211 -6.51404,18.63766 -5.21159,19.11872 -13.78795,-5.09259 -4.06003,-11.46161 -4.86511,-12.5 -9.69133,-12.5 -2.89491,0 -4.9857,0.69153 -4.64618,1.53673 0.3395,0.8452 4.36727,11.67632 8.95061,24.06916 7.61044,20.57781 8.73494,22.53243 12.96296,22.53243 4.22802,0 5.35252,-1.95462 12.96296,-22.53243 z m -38.88889,-35.79108 c 0,-3.90946 -0.8642,-4.62963 -5.55555,-4.62963 -4.69135,0 -5.55556,0.72017 -5.55556,4.62963 0,3.90947 0.86421,4.62963 5.55556,4.62963 4.69135,0 5.55555,-0.72016 5.55555,-4.62963 z"
       id="path3708"
       inkscape:connector-curvature="0"
       transform="scale(0.26458333)" />
  </g>
</svg>
